<!--
need to add the following library to support older browsers (eg IE11):
https://github.com/jonathantneal/svg4everybody

more info about svg and use element:
https://css-tricks.com/svg-use-external-source/
-->
<svg xmlns="http://www.w3.org/2000/svg" xmlns:xlink="http://www.w3.org/1999/xlink">

    <symbol id="open-menu">
        <path d="M0 24H24V20H0V24ZM0 14H24V10H0V14ZM0 0V4H24V0H0Z"/>
    </symbol>

    <symbol id="close-menu">
        <path d="M24 2.41714L21.5829 0L12 9.58286L2.41714 0L0 2.41714L9.58286 12L0 21.5829L2.41714 24L12 14.4171L21.5829 24L24 21.5829L14.4171 12L24 2.41714Z"/>
    </symbol>

    <symbol id="phone">
        <path d="M0 0h24v24H0z" fill="none"/>
        <path d="M6.62 10.79c1.44 2.83 3.76 5.14 6.59 6.59l2.2-2.2c.27-.27.67-.36 1.02-.24 1.12.37 2.33.57 3.57.57.55 0 1 .45 1 1V20c0 .55-.45 1-1 1-9.39 0-17-7.61-17-17 0-.55.45-1 1-1h3.5c.55 0 1 .45 1 1 0 1.25.2 2.45.57 3.57.11.35.03.74-.25 1.02l-2.2 2.2z"/>
    </symbol>

    <symbol id="person">
        <path d="M12 12c2.21 0 4-1.79 4-4s-1.79-4-4-4-4 1.79-4 4 1.79 4 4 4zm0 2c-2.67 0-8 1.34-8 4v2h16v-2c0-2.66-5.33-4-8-4z"/>
        <path d="M0 0h24v24H0z" fill="none"/>
    </symbol>

    <symbol id="calendar">
        <path d="M20 3h-1V1h-2v2H7V1H5v2H4c-1.1 0-2 .9-2 2v16c0 1.1.9 2 2 2h16c1.1 0 2-.9 2-2V5c0-1.1-.9-2-2-2zm0 18H4V8h16v13z"/>
        <path fill="none" d="M0 0h24v24H0z"/>
    </symbol>

    <symbol id="edit">
        <path d="M3 17.25V21h3.75L17.81 9.94l-3.75-3.75L3 17.25zM20.71 7.04c.39-.39.39-1.02 0-1.41l-2.34-2.34c-.39-.39-1.02-.39-1.41 0l-1.83 1.83 3.75 3.75 1.83-1.83z"/>
        <path d="M0 0h24v24H0z" fill="none"/>
    </symbol>

    <symbol id="left">
        <path d="M11.67 3.87L9.9 2.1 0 12l9.9 9.9 1.77-1.77L3.54 12z"/>
        <path fill="none" d="M0 0h24v24H0z"/>
    </symbol>

    <symbol id="right">
        <path d="M5.88 4.12L13.76 12l-7.88 7.88L8 22l10-10L8 2z"/>
        <path fill="none" d="M0 0h24v24H0z"/>
    </symbol>

    <symbol id="down">
        <path d="M16.59 8.59L12 13.17 7.41 8.59 6 10l6 6 6-6z"/>
        <path d="M0 0h24v24H0z" fill="none"/>
    </symbol>

    <symbol id="copyright">
        <defs>
            <path id="a" d="M24 0v24H0V0h24z"/>
        </defs>
        <clipPath id="b">
            <use xlink:href="#a" overflow="visible"/>
        </clipPath>
        <path d="M10.08 10.86c.05-.33.16-.62.3-.87s.34-.46.59-.62c.24-.15.54-.22.91-.23.23.01.44.05.63.13.2.09.38.21.52.36s.25.33.34.53.13.42.14.64h1.79c-.02-.47-.11-.9-.28-1.29s-.4-.73-.7-1.01-.66-.5-1.08-.66-.88-.23-1.39-.23c-.65 0-1.22.11-1.7.34s-.88.53-1.2.92-.56.84-.71 1.36S8 11.29 8 11.87v.27c0 .58.08 1.12.23 1.64s.39.97.71 1.35.72.69 1.2.91 1.05.34 1.7.34c.47 0 .91-.08 1.32-.23s.77-.36 1.08-.63.56-.58.74-.94.29-.74.3-1.15h-1.79c-.01.21-.06.4-.15.58s-.21.33-.36.46-.32.23-.52.3c-.19.07-.39.09-.6.1-.36-.01-.66-.08-.89-.23-.25-.16-.45-.37-.59-.62s-.25-.55-.3-.88-.08-.67-.08-1v-.27c0-.35.03-.68.08-1.01zM12 2C6.48 2 2 6.48 2 12s4.48 10 10 10 10-4.48 10-10S17.52 2 12 2zm0 18c-4.41 0-8-3.59-8-8s3.59-8 8-8 8 3.59 8 8-3.59 8-8 8z" clip-path="url(#b)"/>
    </symbol>

    <symbol id="gluten-free">
        <path d="M7.75 9H10.75C11.35 9 11.75 9.5 11.75 10V10.5H8.25V13.5H10.25V12H11.75V14C11.75 14.5 11.35 15 10.75 15H7.75C7.15 15 6.75 14.5 6.75 14V10C6.75 9.5 7.15 9 7.75 9Z"/>
        <path d="M17 9V10.5H14V11.5H16V13H14V15H12.5V9H17Z"/>
        <path d="M12 2C6.48 2 2 6.48 2 12C2 17.52 6.48 22 12 22C17.52 22 22 17.52 22 12C22 6.48 17.52 2 12 2ZM12 20C7.59 20 4 16.41 4 12C4 7.59 7.59 4 12 4C16.41 4 20 7.59 20 12C20 16.41 16.41 20 12 20Z"/>
    </symbol>

    <symbol id="vegetarian">
        <path d="M12 2C6.48 2 2 6.48 2 12C2 17.52 6.48 22 12 22C17.52 22 22 17.52 22 12C22 6.48 17.52 2 12 2ZM12 20C7.59 20 4 16.41 4 12C4 7.59 7.59 4 12 4C16.41 4 20 7.59 20 12C20 16.41 16.41 20 12 20Z"/>
        <path d="M12 13.5L11 9H9.5L11 15H12H13L14.5 9H13L12 13.5Z"/>
    </symbol>

    <symbol id="vegan">
        <path d="M13 8.99997H16C16.6 8.99997 17 9.49997 17 9.99997V10.5H13.5V13.5H15.5V12H17V14C17 14.5 16.6 15 16 15H13C12.4 15 12 14.5 12 14V9.99997C12 9.49997 12.4 8.99997 13 8.99997Z"/>
        <path d="M9 13.5L8 8.99997H6.5L8 15H9H10L11.5 8.99997H10L9 13.5Z"/>
        <path d="M12 1.99983C6.48 1.99983 2 6.47983 2 11.9998C2 17.5198 6.48 21.9998 12 21.9998C17.52 21.9998 22 17.5198 22 11.9998C22 6.47983 17.52 1.99983 12 1.99983ZM12 19.9998C7.59 19.9998 4 16.4098 4 11.9998C4 7.58983 7.59 3.99983 12 3.99983C16.41 3.99983 20 7.58983 20 11.9998C20 16.4098 16.41 19.9998 12 19.9998Z"/>
    </symbol>

</svg>
